<?xml version="1.0" encoding="UTF-8" standalone="no"?>
<svg
   xmlns:dc="http://purl.org/dc/elements/1.1/"
   xmlns:cc="http://creativecommons.org/ns#"
   xmlns:rdf="http://www.w3.org/1999/02/22-rdf-syntax-ns#"
   xmlns:svg="http://www.w3.org/2000/svg"
   xmlns="http://www.w3.org/2000/svg"
   id="Layer_1"
   viewBox="0 0 1000 1000"
   height="1000"
   width="1000"
   version="1.1">
  <metadata
     id="metadata12">
    <rdf:RDF>
      <cc:Work
         rdf:about="">
        <dc:format>image/svg+xml</dc:format>
        <dc:type
           rdf:resource="http://purl.org/dc/dcmitype/StillImage" />
        <dc:title></dc:title>
      </cc:Work>
    </rdf:RDF>
  </metadata>
  <defs
     id="defs10" />
  <g
     id="g2986">
    <g
       transform="scale(7.8125,7.8125)"
       id="g3">
      <circle
         cx="64"
         cy="64"
         r="64"
         id="circle5"
         style="fill:#55acee" />
    </g>
    <g
       transform="matrix(7.2570902,0,0,7.2570902,28.289137,28.30728)"
       id="g7">
      <path
         d="m 105,40.189 c -2.943,1.306 -6.105,2.188 -9.428,2.584 3.39,-2.031 5.99,-5.248 7.217,-9.08 -3.171,1.881 -6.684,3.247 -10.422,3.983 -2.994,-3.19 -7.26,-5.184 -11.979,-5.184 -9.065,0 -16.414,7.349 -16.414,16.412 0,1.287 0.146,2.539 0.426,3.741 C 50.758,51.96 38.665,45.426 30.57,35.497 c -1.413,2.423 -2.223,5.243 -2.223,8.251 0,5.694 2.898,10.718 7.302,13.661 -2.69,-0.085 -5.222,-0.824 -7.434,-2.054 -0.002,0.069 -0.002,0.138 -0.002,0.207 0,7.954 5.657,14.584 13.166,16.093 -1.378,0.375 -2.827,0.575 -4.324,0.575 -1.058,0 -2.086,-0.103 -3.088,-0.295 2.089,6.521 8.15,11.268 15.332,11.399 -5.617,4.401 -12.694,7.024 -20.384,7.024 -1.325,0 -2.632,-0.076 -3.915,-0.229 7.263,4.657 15.892,7.374 25.16,7.374 30.188,0 46.697,-25.01 46.697,-46.698 0,-0.711 -0.018,-1.42 -0.049,-2.123 3.21,-2.311 5.991,-5.202 8.192,-8.493"
         id="path9"
         style="fill:#ffffff" />
    </g>
  </g>
</svg>
