<svg
   version="1.1"
   width="1000"
   height="1000"
   viewBox="0 0 1000 1000"
   id="svg3678">  
  <g
   transform="translate(0,-52.362183)"
   id="layer1">
    <g
   transform="matrix(20.588235,0,0,20.588235,-1735.2941,-40113.917)"
   id="g3741">
      <rect
   width="48.57143"
   height="48.57143"
   ry="0"
   x="84.285713"
   y="1950.9336"
   id="rect4587"
   style="fill:#ea2924;fill-opacity:1;stroke:#ffffff;stroke-width:0;stroke-linecap:round;stroke-linejoin:miter;stroke-miterlimit:4;stroke-opacity:1;stroke-dasharray:none" />
      <rect
   width="40.714287"
   height="39.642857"
   x="88.28083"
   y="1955.83"
   id="rect6292-6"
   style="fill:#ffffff;fill-opacity:1;stroke:none" />
      <path
   d="m 95.071892,1978.8808 2.2288,0 0,11.0713 2.1537,0 0,-11.0713 2.227498,0 0,-1.885 -6.609998,0 0,1.885 z"
   id="path5172-8-3"
   style="fill:#323232;fill-opacity:1;fill-rule:nonzero;stroke:none" />
      <path
   d="m 112.94049,1987.7163 c 0,0.3075 -0.056,0.525 -0.165,0.6588 -0.1112,0.1375 -0.28,0.2025 -0.5162,0.2025 -0.1613,0 -0.3125,-0.036 -0.4613,-0.1025 -0.1462,-0.065 -0.2987,-0.1825 -0.4512,-0.3363 l 0,-5.955 c 0.1287,-0.1337 0.2612,-0.2312 0.3925,-0.2925 0.1337,-0.066 0.2687,-0.095 0.405,-0.095 0.2575,0 0.4575,0.082 0.5962,0.2463 0.1338,0.1687 0.2,0.4125 0.2,0.7375 l 0,4.9362 z m 0.1063,-7.4387 c -0.2975,0 -0.5913,0.075 -0.8825,0.2262 -0.2863,0.1525 -0.56,0.3763 -0.8175,0.6675 l 0,-4.175 -1.9313,0 0,12.9563 1.9313,0 0,-0.7325 c 0.2487,0.295 0.5237,0.51 0.8162,0.65 0.2888,0.1387 0.6238,0.2075 1,0.2075 0.5638,0 1.0013,-0.1788 1.2975,-0.54 0.3,-0.3638 0.45,-0.8813 0.45,-1.5575 l 0,-5.305 c 0,-0.7838 -0.1587,-1.38 -0.48,-1.785 -0.3175,-0.4075 -0.78,-0.6125 -1.3837,-0.6125"
   id="path5180-5-9"
   style="fill:#323232;fill-opacity:1;fill-rule:nonzero;stroke:none" />
      <path
   d="m 106.06669,1987.6577 c -0.18,0.205 -0.3763,0.3738 -0.5925,0.51 -0.215,0.135 -0.395,0.2 -0.5313,0.2 -0.18,0 -0.31,-0.049 -0.3937,-0.1512 -0.076,-0.1 -0.1188,-0.2638 -0.1188,-0.4875 l 0,-7.335 -1.91,0 0,7.9937 c 0,0.5713 0.1125,0.9913 0.3363,1.2813 0.225,0.2837 0.555,0.425 0.9975,0.425 0.36,0 0.7287,-0.098 1.11,-0.3025 0.3825,-0.2075 0.7487,-0.5 1.1025,-0.8863 l 0,1.0475 1.9112,0 0,-9.5587 -1.9112,0 0,7.2637 z"
   id="path5184-0-0"
   style="fill:#323232;fill-opacity:1;fill-rule:nonzero;stroke:none" />
      <path
   d="m 127.51449,1987.0107 c 0,3.8088 -3.0888,6.9 -6.8988,6.9 l -23.968698,0 c -3.8113,0 -6.9,-3.0912 -6.9,-6.9 l 0,-5.5475 c 0,-3.81 3.0887,-6.8987 6.9,-6.8987 l 23.968698,0 c 3.81,0 6.8988,3.0887 6.8988,6.8987 z m -28.174998,-30.0412 1.573698,5.7025 0.1525,0 1.4975,-5.7025 2.4613,0 -2.8188,8.3512 0,5.9213 -2.422498,0 0,-5.6575 -2.8825,-8.615 z m 5.858698,6.15 c 0,-0.8138 0.29,-1.4625 0.8688,-1.9513 0.58,-0.4787 1.3587,-0.7225 2.335,-0.7225 0.8912,0 1.62,0.2563 2.1912,0.7638 0.565,0.5087 0.85,1.1675 0.85,1.9725 l 0,5.4375 c 0,0.9037 -0.28,1.6087 -0.8337,2.1187 -0.5613,0.5113 -1.3275,0.7675 -2.305,0.7675 -0.94,0 -1.695,-0.2637 -2.2588,-0.7887 -0.5637,-0.5325 -0.8475,-1.245 -0.8475,-2.1388 z m 7.99,-2.4075 2.1475,0 0,8.0737 c 0,0.2513 0.049,0.43 0.1388,0.54 0.087,0.1113 0.2362,0.17 0.4375,0.17 0.1575,0 0.3575,-0.075 0.6,-0.2212 0.2412,-0.1525 0.4625,-0.34 0.6625,-0.5713 l 0,-7.9912 2.1525,0 0,10.53 -2.1525,0 0,-1.1625 c -0.3938,0.4275 -0.8063,0.7575 -1.2375,0.9787 -0.4275,0.2225 -0.8438,0.3375 -1.2475,0.3375 -0.4988,0 -0.8725,-0.1587 -1.125,-0.4737 -0.25,-0.31 -0.3763,-0.7788 -0.3763,-1.4113 z m -16.402298,-7.3454 c -15.5714,-3.2143 -8.6384,15.9241 -9.5313,33.2812 -0.8734,16.9788 5.066,9.5186 22.031398,10.6027 22.3558,1.4286 22.2097,3.8986 20.7811,-20.9598 -0.9753,-16.972 6.7532,-22.9241 -10.2455,-22.9241"
   id="path5188-2-6"
   style="fill:#ea2924;fill-opacity:1;fill-rule:nonzero;stroke:none" />
      <path
   d="m 119.57019,1983.9175 -1.6888,0 0,-0.9663 c 0,-0.4012 0.062,-0.6912 0.1975,-0.8575 0.1325,-0.1787 0.35,-0.2637 0.655,-0.2637 0.2888,0 0.505,0.085 0.635,0.2637 0.1325,0.1663 0.2013,0.4563 0.2013,0.8575 l 0,0.9663 z m -0.755,-3.76 c -0.8563,0 -1.5513,0.2587 -2.0913,0.7837 -0.5412,0.52 -0.8137,1.1988 -0.8137,2.0213 l 0,4.2975 c 0,0.9225 0.2487,1.645 0.7387,2.1675 0.4913,0.525 1.1663,0.7887 2.0225,0.7887 0.9525,0 1.6663,-0.2462 2.1438,-0.74 0.4837,-0.4975 0.7187,-1.235 0.7187,-2.2162 l 0,-0.4913 -1.9637,0 0,0.435 c 0,0.5638 -0.067,0.9275 -0.19,1.0913 -0.1263,0.1637 -0.3488,0.2462 -0.665,0.2462 -0.305,0 -0.5213,-0.095 -0.6475,-0.2875 -0.125,-0.1975 -0.1863,-0.545 -0.1863,-1.05 l 0,-1.8 3.6525,0 0,-2.4412 c 0,-0.9025 -0.2312,-1.5963 -0.7025,-2.0825 -0.4687,-0.48 -1.1412,-0.7225 -2.0162,-0.7225"
   id="path5192-7-3"
   style="fill:#323232;fill-opacity:1;fill-rule:nonzero;stroke:none" />
      <path
   d="m 108.33589,1969.7147 c 0.2912,0 0.5237,-0.079 0.695,-0.2362 0.1712,-0.1638 0.2587,-0.3863 0.2587,-0.6675 l 0,-5.7375 c 0,-0.2288 -0.089,-0.4163 -0.2637,-0.5563 -0.175,-0.1437 -0.405,-0.215 -0.69,-0.215 -0.2625,0 -0.475,0.071 -0.6413,0.215 -0.1625,0.14 -0.2437,0.3275 -0.2437,0.5563 l 0,5.7375 c 0,0.2887 0.076,0.5112 0.23,0.6675 0.1512,0.1575 0.37,0.2362 0.655,0.2362"
   id="path5176-3-6"
   style="fill:#ea2924;fill-opacity:1;fill-rule:nonzero;stroke:none" />
    </g>
  </g>
</svg>