<svg version="1.1" baseProfile="full" shape-rendering="crispEdges" width="2120" height="2120" xmlns="http://www.w3.org/2000/svg"><rect x="0" y="0" width="2120" height="2120" fill="rgb(255, 255, 255)" />
<g transform="translate(60,60)" id="MainGraphicLayer">
<g id="EyeFrames">
<g transform="translate(0,0) scale(5.6, 5.6)"><g transform="translate(100, 0) scale(-1,1)" style="fill: rgb(7, 86, 133);"><path d="M38.806,99.939c-6.634,0.002-13.268-0.006-19.901-0.004c-3.317,0.002-6.634,0.004-9.951,0.011  c-1.592,0.005-3.184,0.009-4.776,0.013c-0.932,0.002-2.048,0.158-2.964-0.094C0.587,99.691,0.4,99.15,0.408,98.549  c0.02-1.441,0.518-2.924,0.759-4.342c0.543-3.193,0.89-6.416,1.183-9.643c0.593-6.527,1.136-13.072,1.347-19.627  c0.209-6.504,0.003-13.029-0.67-19.498c-0.331-3.189-0.795-6.367-1.449-9.508c-0.603-2.893-1.315-5.719-1.489-8.682  c-0.328-5.582,0.97-11.088,3.898-15.863C6.72,6.928,10.834,3.84,15.721,2.064c5.975-2.17,12.286-2.049,18.546-2.029  c6.599,0.021,13.197-0.022,19.797-0.024c6.597-0.003,13.192,0.034,19.791,0.215c4.941,0.137,9.908,1.019,14.252,3.496  c4.613,2.629,8.197,6.862,9.906,11.899c1.957,5.777,1.827,12.262,1.836,18.291c0.017,13.041,0.428,26.125-0.021,39.162  c-0.176,5.041-1.145,10.145-3.738,14.533c-2.748,4.651-7.089,8.107-12.105,10.035c-5.844,2.246-12.051,2.421-18.23,2.314  c-6.49-0.111-12.98,0.047-19.473,0.014C43.789,99.959,41.297,99.939,38.806,99.939C26.865,99.941,45.362,99.939,38.806,99.939z   M41.655,85.625c0-0.07,17.863-0.027,19.555-0.045c3.149-0.023,6.341,0.084,9.437-0.604c2.674-0.592,5.233-1.691,7.478-3.266  c3.683-2.582,6.093-6.438,6.832-10.869c0.478-2.859,0.321-5.83,0.347-8.719c0.027-3.328,0.033-6.654,0.021-9.982  c-0.014-3.328-0.043-6.655-0.088-9.982c-0.041-3.158,0.078-6.328-0.053-9.481c-0.205-4.94-1.652-10.068-5.283-13.609  c-1.521-1.483-3.381-2.592-5.418-3.2c-2.674-0.797-5.596-0.707-8.356-0.857c-6.599-0.365-13.205-0.635-19.815-0.623  c-3.303,0.006-6.607,0.084-9.906,0.254c-2.948,0.152-6.037,0.182-8.932,0.799c-4.294,0.918-8.128,3.613-10.397,7.381  c-2.956,4.909-2.423,10.362-1.473,15.77c1.124,6.402,1.383,12.863,1.374,19.349c-0.006,4.813-0.133,9.591-0.639,14.381  c-0.245,2.316-0.541,4.628-0.845,6.938c-0.152,1.156-0.307,2.312-0.458,3.466c-0.089,0.685-0.248,1.505,0.087,2.151  c0.657,1.267,3.101,0.783,4.188,0.771c2.527-0.024,5.055-0.037,7.582-0.039C31.811,85.602,36.733,85.625,41.655,85.625  C41.655,85.607,33.541,85.625,41.655,85.625z" /></g></g>
<g transform="translate(1440,0) scale(5.6, 5.6)"><g transform="" style="fill: rgb(7, 86, 133);"><path d="M38.806,99.939c-6.634,0.002-13.268-0.006-19.901-0.004c-3.317,0.002-6.634,0.004-9.951,0.011  c-1.592,0.005-3.184,0.009-4.776,0.013c-0.932,0.002-2.048,0.158-2.964-0.094C0.587,99.691,0.4,99.15,0.408,98.549  c0.02-1.441,0.518-2.924,0.759-4.342c0.543-3.193,0.89-6.416,1.183-9.643c0.593-6.527,1.136-13.072,1.347-19.627  c0.209-6.504,0.003-13.029-0.67-19.498c-0.331-3.189-0.795-6.367-1.449-9.508c-0.603-2.893-1.315-5.719-1.489-8.682  c-0.328-5.582,0.97-11.088,3.898-15.863C6.72,6.928,10.834,3.84,15.721,2.064c5.975-2.17,12.286-2.049,18.546-2.029  c6.599,0.021,13.197-0.022,19.797-0.024c6.597-0.003,13.192,0.034,19.791,0.215c4.941,0.137,9.908,1.019,14.252,3.496  c4.613,2.629,8.197,6.862,9.906,11.899c1.957,5.777,1.827,12.262,1.836,18.291c0.017,13.041,0.428,26.125-0.021,39.162  c-0.176,5.041-1.145,10.145-3.738,14.533c-2.748,4.651-7.089,8.107-12.105,10.035c-5.844,2.246-12.051,2.421-18.23,2.314  c-6.49-0.111-12.98,0.047-19.473,0.014C43.789,99.959,41.297,99.939,38.806,99.939C26.865,99.941,45.362,99.939,38.806,99.939z   M41.655,85.625c0-0.07,17.863-0.027,19.555-0.045c3.149-0.023,6.341,0.084,9.437-0.604c2.674-0.592,5.233-1.691,7.478-3.266  c3.683-2.582,6.093-6.438,6.832-10.869c0.478-2.859,0.321-5.83,0.347-8.719c0.027-3.328,0.033-6.654,0.021-9.982  c-0.014-3.328-0.043-6.655-0.088-9.982c-0.041-3.158,0.078-6.328-0.053-9.481c-0.205-4.94-1.652-10.068-5.283-13.609  c-1.521-1.483-3.381-2.592-5.418-3.2c-2.674-0.797-5.596-0.707-8.356-0.857c-6.599-0.365-13.205-0.635-19.815-0.623  c-3.303,0.006-6.607,0.084-9.906,0.254c-2.948,0.152-6.037,0.182-8.932,0.799c-4.294,0.918-8.128,3.613-10.397,7.381  c-2.956,4.909-2.423,10.362-1.473,15.77c1.124,6.402,1.383,12.863,1.374,19.349c-0.006,4.813-0.133,9.591-0.639,14.381  c-0.245,2.316-0.541,4.628-0.845,6.938c-0.152,1.156-0.307,2.312-0.458,3.466c-0.089,0.685-0.248,1.505,0.087,2.151  c0.657,1.267,3.101,0.783,4.188,0.771c2.527-0.024,5.055-0.037,7.582-0.039C31.811,85.602,36.733,85.625,41.655,85.625  C41.655,85.607,33.541,85.625,41.655,85.625z" /></g></g>
<g transform="translate(0,1440) scale(5.6, 5.6)"><g transform="translate(100, 0) scale(-1,1)  translate(0,100) scale(1,-1)" style="fill: rgb(7, 86, 133);"><path d="M38.806,99.939c-6.634,0.002-13.268-0.006-19.901-0.004c-3.317,0.002-6.634,0.004-9.951,0.011  c-1.592,0.005-3.184,0.009-4.776,0.013c-0.932,0.002-2.048,0.158-2.964-0.094C0.587,99.691,0.4,99.15,0.408,98.549  c0.02-1.441,0.518-2.924,0.759-4.342c0.543-3.193,0.89-6.416,1.183-9.643c0.593-6.527,1.136-13.072,1.347-19.627  c0.209-6.504,0.003-13.029-0.67-19.498c-0.331-3.189-0.795-6.367-1.449-9.508c-0.603-2.893-1.315-5.719-1.489-8.682  c-0.328-5.582,0.97-11.088,3.898-15.863C6.72,6.928,10.834,3.84,15.721,2.064c5.975-2.17,12.286-2.049,18.546-2.029  c6.599,0.021,13.197-0.022,19.797-0.024c6.597-0.003,13.192,0.034,19.791,0.215c4.941,0.137,9.908,1.019,14.252,3.496  c4.613,2.629,8.197,6.862,9.906,11.899c1.957,5.777,1.827,12.262,1.836,18.291c0.017,13.041,0.428,26.125-0.021,39.162  c-0.176,5.041-1.145,10.145-3.738,14.533c-2.748,4.651-7.089,8.107-12.105,10.035c-5.844,2.246-12.051,2.421-18.23,2.314  c-6.49-0.111-12.98,0.047-19.473,0.014C43.789,99.959,41.297,99.939,38.806,99.939C26.865,99.941,45.362,99.939,38.806,99.939z   M41.655,85.625c0-0.07,17.863-0.027,19.555-0.045c3.149-0.023,6.341,0.084,9.437-0.604c2.674-0.592,5.233-1.691,7.478-3.266  c3.683-2.582,6.093-6.438,6.832-10.869c0.478-2.859,0.321-5.83,0.347-8.719c0.027-3.328,0.033-6.654,0.021-9.982  c-0.014-3.328-0.043-6.655-0.088-9.982c-0.041-3.158,0.078-6.328-0.053-9.481c-0.205-4.94-1.652-10.068-5.283-13.609  c-1.521-1.483-3.381-2.592-5.418-3.2c-2.674-0.797-5.596-0.707-8.356-0.857c-6.599-0.365-13.205-0.635-19.815-0.623  c-3.303,0.006-6.607,0.084-9.906,0.254c-2.948,0.152-6.037,0.182-8.932,0.799c-4.294,0.918-8.128,3.613-10.397,7.381  c-2.956,4.909-2.423,10.362-1.473,15.77c1.124,6.402,1.383,12.863,1.374,19.349c-0.006,4.813-0.133,9.591-0.639,14.381  c-0.245,2.316-0.541,4.628-0.845,6.938c-0.152,1.156-0.307,2.312-0.458,3.466c-0.089,0.685-0.248,1.505,0.087,2.151  c0.657,1.267,3.101,0.783,4.188,0.771c2.527-0.024,5.055-0.037,7.582-0.039C31.811,85.602,36.733,85.625,41.655,85.625  C41.655,85.607,33.541,85.625,41.655,85.625z" /></g></g>
</g>
<g id="EyeBall">
<g transform="translate(160,160) scale(2.4, 2.4)"><g transform="" style="fill: rgb(2, 119, 189);"><path d="M27.351,100c-15.09,0-27.365-12.032-27.365-26.808V26.794c0-4.616,1.2-8.96,3.301-12.761     c2.029-3.658,4.901-6.802,8.36-9.174C16.09,1.801,21.506,0,27.336,0h45.327c15.076,0,27.351,12.018,27.351,26.793v46.398     c0,14.775-12.274,26.808-27.351,26.808H50H27.351z" /></g></g>
<g transform="translate(1600,160) scale(2.4, 2.4)"><g transform="" style="fill: rgb(2, 119, 189);"><path d="M27.351,100c-15.09,0-27.365-12.032-27.365-26.808V26.794c0-4.616,1.2-8.96,3.301-12.761     c2.029-3.658,4.901-6.802,8.36-9.174C16.09,1.801,21.506,0,27.336,0h45.327c15.076,0,27.351,12.018,27.351,26.793v46.398     c0,14.775-12.274,26.808-27.351,26.808H50H27.351z" /></g></g>
<g transform="translate(160,1600) scale(2.4, 2.4)"><g transform="" style="fill: rgb(2, 119, 189);"><path d="M27.351,100c-15.09,0-27.365-12.032-27.365-26.808V26.794c0-4.616,1.2-8.96,3.301-12.761     c2.029-3.658,4.901-6.802,8.36-9.174C16.09,1.801,21.506,0,27.336,0h45.327c15.076,0,27.351,12.018,27.351,26.793v46.398     c0,14.775-12.274,26.808-27.351,26.808H50H27.351z" /></g></g>
</g>
<g id="PixelLayer">
<g transform="translate(800,0) scale(0.8, 0.8)"><g transform="" style="fill: rgb(7, 86, 133);"><path d="M0,34.375V100h100V34.375V0H34.375" /></g></g>
<g transform="translate(880,0) scale(0.8, 0.8)"><g transform="" style="fill: rgb(7, 86, 133);"><rect width="100" height="100" /></g></g>
<g transform="translate(960,0) scale(0.8, 0.8)"><g transform="" style="fill: rgb(7, 86, 133);"><path d="M59.375,0H0v100h59.375L100,50L59.375,0z" /></g></g>
<g transform="translate(1200,0) scale(0.8, 0.8)"><g transform="" style="fill: rgb(7, 86, 133);"><path d="M40.625,0H100v100H40.625L0,50L40.625,0z" /></g></g>
<g transform="translate(1280,0) scale(0.8, 0.8)"><g transform="" style="fill: rgb(7, 86, 133);"><path d="M100,34.375L65.625,0H0v100h100V34.375z" /></g></g>
<g transform="translate(720,80) scale(0.8, 0.8)"><g transform="" style="fill: rgb(7, 86, 133);"><path d="M0,34.375V100h100V34.375V0H34.375" /></g></g>
<g transform="translate(800,80) scale(0.8, 0.8)"><g transform="" style="fill: rgb(7, 86, 133);"><path d="M100,65.625V0H0v100h65.625" /></g></g>
<g transform="translate(1040,80) scale(0.8, 0.8)"><g transform="" style="fill: rgb(7, 86, 133);"><path d="M40.625,0H100v100H40.625L0,50L40.625,0z" /></g></g>
<g transform="translate(1120,80) scale(0.8, 0.8)"><g transform="" style="fill: rgb(7, 86, 133);"><path d="M100,34.375L65.625,0H0v100h100V34.375z" /></g></g>
<g transform="translate(1280,80) scale(0.8, 0.8)"><g transform="" style="fill: rgb(7, 86, 133);"><rect width="100" height="100" /></g></g>
<g transform="translate(720,160) scale(0.8, 0.8)"><g transform="" style="fill: rgb(7, 86, 133);"><path d="M100,59.375V0H0v59.375L50,100L100,59.375z" /></g></g>
<g transform="translate(880,160) scale(0.8, 0.8)"><g transform="" style="fill: rgb(7, 86, 133);"><path d="M0,34.375V100h100V34.375V0H34.375" /></g></g>
<g transform="translate(960,160) scale(0.8, 0.8)"><g transform="" style="fill: rgb(7, 86, 133);"><path d="M59.375,0H0v100h59.375L100,50L59.375,0z" /></g></g>
<g transform="translate(1120,160) scale(0.8, 0.8)"><g transform="" style="fill: rgb(7, 86, 133);"><rect width="100" height="100" /></g></g>
<g transform="translate(1200,160) scale(0.8, 0.8)"><g transform="" style="fill: rgb(7, 86, 133);"><rect width="100" height="100" /></g></g>
<g transform="translate(1280,160) scale(0.8, 0.8)"><g transform="" style="fill: rgb(7, 86, 133);"><path d="M100,65.625V0H0v100h65.625" /></g></g>
<g transform="translate(640,240) scale(0.8, 0.8)"><g transform="" style="fill: rgb(7, 86, 133);"><polygon points="99.999,49.999 99.998,49.999 49.999,0 0,49.999 -0.001,49.999 -0.001,50 0,50 49.999,99.999 99.998,50 99.999,50   99.998,50 " /></g></g>
<g transform="translate(880,240) scale(0.8, 0.8)"><g transform="" style="fill: rgb(7, 86, 133);"><path d="M100,59.375V0H0v59.375L50,100L100,59.375z" /></g></g>
<g transform="translate(1120,240) scale(0.8, 0.8)"><g transform="" style="fill: rgb(7, 86, 133);"><rect width="100" height="100" /></g></g>
<g transform="translate(720,320) scale(0.8, 0.8)"><g transform="" style="fill: rgb(7, 86, 133);"><path d="M0,34.375V100h100V34.375V0H34.375" /></g></g>
<g transform="translate(800,320) scale(0.8, 0.8)"><g transform="" style="fill: rgb(7, 86, 133);"><path d="M59.375,0H0v100h59.375L100,50L59.375,0z" /></g></g>
<g transform="translate(1040,320) scale(0.8, 0.8)"><g transform="" style="fill: rgb(7, 86, 133);"><path d="M40.625,0H100v100H40.625L0,50L40.625,0z" /></g></g>
<g transform="translate(1120,320) scale(0.8, 0.8)"><g transform="" style="fill: rgb(7, 86, 133);"><rect width="100" height="100" /></g></g>
<g transform="translate(1200,320) scale(0.8, 0.8)"><g transform="" style="fill: rgb(7, 86, 133);"><path d="M100,34.375L65.625,0H0v100h100V34.375z" /></g></g>
<g transform="translate(640,400) scale(0.8, 0.8)"><g transform="" style="fill: rgb(7, 86, 133);"><path d="M0,34.375V100h100V34.375V0H34.375" /></g></g>
<g transform="translate(720,400) scale(0.8, 0.8)"><g transform="" style="fill: rgb(7, 86, 133);"><path d="M100,65.625V0H0v100h65.625" /></g></g>
<g transform="translate(960,400) scale(0.8, 0.8)"><g transform="" style="fill: rgb(7, 86, 133);"><path d="M100,40.625V100H0V40.625L50,0L100,40.625z" /></g></g>
<g transform="translate(1200,400) scale(0.8, 0.8)"><g transform="" style="fill: rgb(7, 86, 133);"><path d="M100,59.375V0H0v59.375L50,100L100,59.375z" /></g></g>
<g transform="translate(640,480) scale(0.8, 0.8)"><g transform="" style="fill: rgb(7, 86, 133);"><rect width="100" height="100" /></g></g>
<g transform="translate(800,480) scale(0.8, 0.8)"><g transform="" style="fill: rgb(7, 86, 133);"><polygon points="99.999,49.999 99.998,49.999 49.999,0 0,49.999 -0.001,49.999 -0.001,50 0,50 49.999,99.999 99.998,50 99.999,50   99.998,50 " /></g></g>
<g transform="translate(960,480) scale(0.8, 0.8)"><g transform="" style="fill: rgb(7, 86, 133);"><path d="M100,59.375V0H0v59.375L50,100L100,59.375z" /></g></g>
<g transform="translate(1120,480) scale(0.8, 0.8)"><g transform="" style="fill: rgb(7, 86, 133);"><path d="M100,40.625V100H0V40.625L50,0L100,40.625z" /></g></g>
<g transform="translate(1280,480) scale(0.8, 0.8)"><g transform="" style="fill: rgb(7, 86, 133);"><path d="M100,40.625V100H0V40.625L50,0L100,40.625z" /></g></g>
<g transform="translate(640,560) scale(0.8, 0.8)"><g transform="" style="fill: rgb(7, 86, 133);"><path d="M100,59.375V0H0v59.375L50,100L100,59.375z" /></g></g>
<g transform="translate(1120,560) scale(0.8, 0.8)"><g transform="" style="fill: rgb(7, 86, 133);"><rect width="100" height="100" /></g></g>
<g transform="translate(1200,560) scale(0.8, 0.8)"><g transform="" style="fill: rgb(7, 86, 133);"><rect width="100" height="100" /></g></g>
<g transform="translate(1280,560) scale(0.8, 0.8)"><g transform="" style="fill: rgb(7, 86, 133);"><path d="M100,65.625V0H0v100h65.625" /></g></g>
<g transform="translate(80,640) scale(0.8, 0.8)"><g transform="" style="fill: rgb(7, 86, 133);"><path d="M0,34.375V100h100V34.375V0H34.375" /></g></g>
<g transform="translate(160,640) scale(0.8, 0.8)"><g transform="" style="fill: rgb(7, 86, 133);"><path d="M59.375,0H0v100h59.375L100,50L59.375,0z" /></g></g>
<g transform="translate(480,640) scale(0.8, 0.8)"><g transform="" style="fill: rgb(7, 86, 133);"><polygon points="99.999,49.999 99.998,49.999 49.999,0 0,49.999 -0.001,49.999 -0.001,50 0,50 49.999,99.999 99.998,50 99.999,50   99.998,50 " /></g></g>
<g transform="translate(720,640) scale(0.8, 0.8)"><g transform="" style="fill: rgb(7, 86, 133);"><polygon points="99.999,49.999 99.998,49.999 49.999,0 0,49.999 -0.001,49.999 -0.001,50 0,50 49.999,99.999 99.998,50 99.999,50   99.998,50 " /></g></g>
<g transform="translate(880,640) scale(0.8, 0.8)"><g transform="" style="fill: rgb(7, 86, 133);"><path d="M100,40.625V100H0V40.625L50,0L100,40.625z" /></g></g>
<g transform="translate(1040,640) scale(0.8, 0.8)"><g transform="" style="fill: rgb(7, 86, 133);"><path d="M0,34.375V100h100V34.375V0H34.375" /></g></g>
<g transform="translate(1120,640) scale(0.8, 0.8)"><g transform="" style="fill: rgb(7, 86, 133);"><rect width="100" height="100" /></g></g>
<g transform="translate(1440,640) scale(0.8, 0.8)"><g transform="" style="fill: rgb(7, 86, 133);"><path d="M0,34.375V100h100V34.375V0H34.375" /></g></g>
<g transform="translate(1520,640) scale(0.8, 0.8)"><g transform="" style="fill: rgb(7, 86, 133);"><path d="M100,34.375L65.625,0H0v100h100V34.375z" /></g></g>
<g transform="translate(1680,640) scale(0.8, 0.8)"><g transform="" style="fill: rgb(7, 86, 133);"><polygon points="99.999,49.999 99.998,49.999 49.999,0 0,49.999 -0.001,49.999 -0.001,50 0,50 49.999,99.999 99.998,50 99.999,50   99.998,50 " /></g></g>
<g transform="translate(80,720) scale(0.8, 0.8)"><g transform="" style="fill: rgb(7, 86, 133);"><path d="M100,59.375V0H0v59.375L50,100L100,59.375z" /></g></g>
<g transform="translate(320,720) scale(0.8, 0.8)"><g transform="" style="fill: rgb(7, 86, 133);"><path d="M100,40.625V100H0V40.625L50,0L100,40.625z" /></g></g>
<g transform="translate(800,720) scale(0.8, 0.8)"><g transform="" style="fill: rgb(7, 86, 133);"><path d="M40.625,0H100v100H40.625L0,50L40.625,0z" /></g></g>
<g transform="translate(880,720) scale(0.8, 0.8)"><g transform="" style="fill: rgb(7, 86, 133);"><rect width="100" height="100" /></g></g>
<g transform="translate(960,720) scale(0.8, 0.8)"><g transform="" style="fill: rgb(7, 86, 133);"><rect width="100" height="100" /></g></g>
<g transform="translate(1040,720) scale(0.8, 0.8)"><g transform="" style="fill: rgb(7, 86, 133);"><rect width="100" height="100" /></g></g>
<g transform="translate(1120,720) scale(0.8, 0.8)"><g transform="" style="fill: rgb(7, 86, 133);"><path d="M100,65.625V0H0v100h65.625" /></g></g>
<g transform="translate(1360,720) scale(0.8, 0.8)"><g transform="" style="fill: rgb(7, 86, 133);"><path d="M0,34.375V100h100V34.375V0H34.375" /></g></g>
<g transform="translate(1440,720) scale(0.8, 0.8)"><g transform="" style="fill: rgb(7, 86, 133);"><rect width="100" height="100" /></g></g>
<g transform="translate(1520,720) scale(0.8, 0.8)"><g transform="" style="fill: rgb(7, 86, 133);"><path d="M100,65.625V0H0v100h65.625" /></g></g>
<g transform="translate(1760,720) scale(0.8, 0.8)"><g transform="" style="fill: rgb(7, 86, 133);"><path d="M100,40.625V100H0V40.625L50,0L100,40.625z" /></g></g>
<g transform="translate(1920,720) scale(0.8, 0.8)"><g transform="" style="fill: rgb(7, 86, 133);"><path d="M100,40.625V100H0V40.625L50,0L100,40.625z" /></g></g>
<g transform="translate(0,800) scale(0.8, 0.8)"><g transform="" style="fill: rgb(7, 86, 133);"><polygon points="99.999,49.999 99.998,49.999 49.999,0 0,49.999 -0.001,49.999 -0.001,50 0,50 49.999,99.999 99.998,50 99.999,50   99.998,50 " /></g></g>
<g transform="translate(160,800) scale(0.8, 0.8)"><g transform="" style="fill: rgb(7, 86, 133);"><path d="M0,34.375V100h100V34.375V0H34.375" /></g></g>
<g transform="translate(240,800) scale(0.8, 0.8)"><g transform="" style="fill: rgb(7, 86, 133);"><rect width="100" height="100" /></g></g>
<g transform="translate(320,800) scale(0.8, 0.8)"><g transform="" style="fill: rgb(7, 86, 133);"><path d="M100,65.625V0H0v100h65.625" /></g></g>
<g transform="translate(480,800) scale(0.8, 0.8)"><g transform="" style="fill: rgb(7, 86, 133);"><path d="M40.625,0H100v100H40.625L0,50L40.625,0z" /></g></g>
<g transform="translate(560,800) scale(0.8, 0.8)"><g transform="" style="fill: rgb(7, 86, 133);"><rect width="100" height="100" /></g></g>
<g transform="translate(640,800) scale(0.8, 0.8)"><g transform="" style="fill: rgb(7, 86, 133);"><rect width="100" height="100" /></g></g>
<g transform="translate(720,800) scale(0.8, 0.8)"><g transform="" style="fill: rgb(7, 86, 133);"><path d="M100,34.375L65.625,0H0v100h100V34.375z" /></g></g>
<g transform="translate(960,800) scale(0.8, 0.8)"><g transform="" style="fill: rgb(7, 86, 133);"><path d="M100,59.375V0H0v59.375L50,100L100,59.375z" /></g></g>
<g transform="translate(1200,800) scale(0.8, 0.8)"><g transform="" style="fill: rgb(7, 86, 133);"><polygon points="99.999,49.999 99.998,49.999 49.999,0 0,49.999 -0.001,49.999 -0.001,50 0,50 49.999,99.999 99.998,50 99.999,50   99.998,50 " /></g></g>
<g transform="translate(1360,800) scale(0.8, 0.8)"><g transform="" style="fill: rgb(7, 86, 133);"><rect width="100" height="100" /></g></g>
<g transform="translate(1440,800) scale(0.8, 0.8)"><g transform="" style="fill: rgb(7, 86, 133);"><rect width="100" height="100" /></g></g>
<g transform="translate(1600,800) scale(0.8, 0.8)"><g transform="" style="fill: rgb(7, 86, 133);"><path d="M40.625,0H100v100H40.625L0,50L40.625,0z" /></g></g>
<g transform="translate(1680,800) scale(0.8, 0.8)"><g transform="" style="fill: rgb(7, 86, 133);"><rect width="100" height="100" /></g></g>
<g transform="translate(1760,800) scale(0.8, 0.8)"><g transform="" style="fill: rgb(7, 86, 133);"><path d="M100,65.625V0H0v100h65.625" /></g></g>
<g transform="translate(1920,800) scale(0.8, 0.8)"><g transform="" style="fill: rgb(7, 86, 133);"><path d="M100,59.375V0H0v59.375L50,100L100,59.375z" /></g></g>
<g transform="translate(80,880) scale(0.8, 0.8)"><g transform="" style="fill: rgb(7, 86, 133);"><path d="M40.625,0H100v100H40.625L0,50L40.625,0z" /></g></g>
<g transform="translate(160,880) scale(0.8, 0.8)"><g transform="" style="fill: rgb(7, 86, 133);"><path d="M100,65.625V0H0v100h65.625" /></g></g>
<g transform="translate(720,880) scale(0.8, 0.8)"><g transform="" style="fill: rgb(7, 86, 133);"><rect width="100" height="100" /></g></g>
<g transform="translate(800,880) scale(0.8, 0.8)"><g transform="" style="fill: rgb(7, 86, 133);"><rect width="100" height="100" /></g></g>
<g transform="translate(880,880) scale(0.8, 0.8)"><g transform="" style="fill: rgb(7, 86, 133);"><path d="M100,34.375L65.625,0H0v100h100V34.375z" /></g></g>
<g transform="translate(1040,880) scale(0.8, 0.8)"><g transform="" style="fill: rgb(7, 86, 133);"><path d="M100,40.625V100H0V40.625L50,0L100,40.625z" /></g></g>
<g transform="translate(1360,880) scale(0.8, 0.8)"><g transform="" style="fill: rgb(7, 86, 133);"><path d="M34.375,100H100V0H0v65.625" /></g></g>
<g transform="translate(1440,880) scale(0.8, 0.8)"><g transform="" style="fill: rgb(7, 86, 133);"><rect width="100" height="100" /></g></g>
<g transform="translate(1520,880) scale(0.8, 0.8)"><g transform="" style="fill: rgb(7, 86, 133);"><path d="M59.375,0H0v100h59.375L100,50L59.375,0z" /></g></g>
<g transform="translate(1680,880) scale(0.8, 0.8)"><g transform="" style="fill: rgb(7, 86, 133);"><rect width="100" height="100" /></g></g>
<g transform="translate(1840,880) scale(0.8, 0.8)"><g transform="" style="fill: rgb(7, 86, 133);"><polygon points="99.999,49.999 99.998,49.999 49.999,0 0,49.999 -0.001,49.999 -0.001,50 0,50 49.999,99.999 99.998,50 99.999,50   99.998,50 " /></g></g>
<g transform="translate(0,960) scale(0.8, 0.8)"><g transform="" style="fill: rgb(7, 86, 133);"><polygon points="99.999,49.999 99.998,49.999 49.999,0 0,49.999 -0.001,49.999 -0.001,50 0,50 49.999,99.999 99.998,50 99.999,50   99.998,50 " /></g></g>
<g transform="translate(400,960) scale(0.8, 0.8)"><g transform="" style="fill: rgb(7, 86, 133);"><path d="M40.625,0H100v100H40.625L0,50L40.625,0z" /></g></g>
<g transform="translate(480,960) scale(0.8, 0.8)"><g transform="" style="fill: rgb(7, 86, 133);"><rect width="100" height="100" /></g></g>
<g transform="translate(560,960) scale(0.8, 0.8)"><g transform="" style="fill: rgb(7, 86, 133);"><path d="M59.375,0H0v100h59.375L100,50L59.375,0z" /></g></g>
<g transform="translate(720,960) scale(0.8, 0.8)"><g transform="" style="fill: rgb(7, 86, 133);"><rect width="100" height="100" /></g></g>
<g transform="translate(800,960) scale(0.8, 0.8)"><g transform="" style="fill: rgb(7, 86, 133);"><rect width="100" height="100" /></g></g>
<g transform="translate(880,960) scale(0.8, 0.8)"><g transform="" style="fill: rgb(7, 86, 133);"><path d="M100,65.625V0H0v100h65.625" /></g></g>
<g transform="translate(1040,960) scale(0.8, 0.8)"><g transform="" style="fill: rgb(7, 86, 133);"><rect width="100" height="100" /></g></g>
<g transform="translate(1200,960) scale(0.8, 0.8)"><g transform="" style="fill: rgb(7, 86, 133);"><path d="M40.625,0H100v100H40.625L0,50L40.625,0z" /></g></g>
<g transform="translate(1280,960) scale(0.8, 0.8)"><g transform="" style="fill: rgb(7, 86, 133);"><path d="M100,34.375L65.625,0H0v100h100V34.375z" /></g></g>
<g transform="translate(1440,960) scale(0.8, 0.8)"><g transform="" style="fill: rgb(7, 86, 133);"><rect width="100" height="100" /></g></g>
<g transform="translate(1680,960) scale(0.8, 0.8)"><g transform="" style="fill: rgb(7, 86, 133);"><rect width="100" height="100" /></g></g>
<g transform="translate(1920,960) scale(0.8, 0.8)"><g transform="" style="fill: rgb(7, 86, 133);"><path d="M100,40.625V100H0V40.625L50,0L100,40.625z" /></g></g>
<g transform="translate(160,1040) scale(0.8, 0.8)"><g transform="" style="fill: rgb(7, 86, 133);"><path d="M0,34.375V100h100V34.375V0H34.375" /></g></g>
<g transform="translate(240,1040) scale(0.8, 0.8)"><g transform="" style="fill: rgb(7, 86, 133);"><path d="M59.375,0H0v100h59.375L100,50L59.375,0z" /></g></g>
<g transform="translate(720,1040) scale(0.8, 0.8)"><g transform="" style="fill: rgb(7, 86, 133);"><path d="M100,59.375V0H0v59.375L50,100L100,59.375z" /></g></g>
<g transform="translate(960,1040) scale(0.8, 0.8)"><g transform="" style="fill: rgb(7, 86, 133);"><path d="M40.625,0H100v100H40.625L0,50L40.625,0z" /></g></g>
<g transform="translate(1040,1040) scale(0.8, 0.8)"><g transform="" style="fill: rgb(7, 86, 133);"><path d="M100,65.625V0H0v100h65.625" /></g></g>
<g transform="translate(1280,1040) scale(0.8, 0.8)"><g transform="" style="fill: rgb(7, 86, 133);"><rect width="100" height="100" /></g></g>
<g transform="translate(1440,1040) scale(0.8, 0.8)"><g transform="" style="fill: rgb(7, 86, 133);"><rect width="100" height="100" /></g></g>
<g transform="translate(1520,1040) scale(0.8, 0.8)"><g transform="" style="fill: rgb(7, 86, 133);"><path d="M59.375,0H0v100h59.375L100,50L59.375,0z" /></g></g>
<g transform="translate(1680,1040) scale(0.8, 0.8)"><g transform="" style="fill: rgb(7, 86, 133);"><rect width="100" height="100" /></g></g>
<g transform="translate(1920,1040) scale(0.8, 0.8)"><g transform="" style="fill: rgb(7, 86, 133);"><rect width="100" height="100" /></g></g>
<g transform="translate(0,1120) scale(0.8, 0.8)"><g transform="" style="fill: rgb(7, 86, 133);"><path d="M40.625,0H100v100H40.625L0,50L40.625,0z" /></g></g>
<g transform="translate(80,1120) scale(0.8, 0.8)"><g transform="" style="fill: rgb(7, 86, 133);"><rect width="100" height="100" /></g></g>
<g transform="translate(160,1120) scale(0.8, 0.8)"><g transform="" style="fill: rgb(7, 86, 133);"><rect width="100" height="100" /></g></g>
<g transform="translate(480,1120) scale(0.8, 0.8)"><g transform="" style="fill: rgb(7, 86, 133);"><path d="M40.625,0H100v100H40.625L0,50L40.625,0z" /></g></g>
<g transform="translate(560,1120) scale(0.8, 0.8)"><g transform="" style="fill: rgb(7, 86, 133);"><path d="M100,34.375L65.625,0H0v100h100V34.375z" /></g></g>
<g transform="translate(800,1120) scale(0.8, 0.8)"><g transform="" style="fill: rgb(7, 86, 133);"><polygon points="99.999,49.999 99.998,49.999 49.999,0 0,49.999 -0.001,49.999 -0.001,50 0,50 49.999,99.999 99.998,50 99.999,50   99.998,50 " /></g></g>
<g transform="translate(1120,1120) scale(0.8, 0.8)"><g transform="" style="fill: rgb(7, 86, 133);"><polygon points="99.999,49.999 99.998,49.999 49.999,0 0,49.999 -0.001,49.999 -0.001,50 0,50 49.999,99.999 99.998,50 99.999,50   99.998,50 " /></g></g>
<g transform="translate(1280,1120) scale(0.8, 0.8)"><g transform="" style="fill: rgb(7, 86, 133);"><rect width="100" height="100" /></g></g>
<g transform="translate(1440,1120) scale(0.8, 0.8)"><g transform="" style="fill: rgb(7, 86, 133);"><path d="M100,59.375V0H0v59.375L50,100L100,59.375z" /></g></g>
<g transform="translate(1680,1120) scale(0.8, 0.8)"><g transform="" style="fill: rgb(7, 86, 133);"><rect width="100" height="100" /></g></g>
<g transform="translate(1760,1120) scale(0.8, 0.8)"><g transform="" style="fill: rgb(7, 86, 133);"><path d="M59.375,0H0v100h59.375L100,50L59.375,0z" /></g></g>
<g transform="translate(1920,1120) scale(0.8, 0.8)"><g transform="" style="fill: rgb(7, 86, 133);"><path d="M100,59.375V0H0v59.375L50,100L100,59.375z" /></g></g>
<g transform="translate(160,1200) scale(0.8, 0.8)"><g transform="" style="fill: rgb(7, 86, 133);"><rect width="100" height="100" /></g></g>
<g transform="translate(240,1200) scale(0.8, 0.8)"><g transform="" style="fill: rgb(7, 86, 133);"><path d="M59.375,0H0v100h59.375L100,50L59.375,0z" /></g></g>
<g transform="translate(560,1200) scale(0.8, 0.8)"><g transform="" style="fill: rgb(7, 86, 133);"><rect width="100" height="100" /></g></g>
<g transform="translate(960,1200) scale(0.8, 0.8)"><g transform="" style="fill: rgb(7, 86, 133);"><path d="M40.625,0H100v100H40.625L0,50L40.625,0z" /></g></g>
<g transform="translate(1040,1200) scale(0.8, 0.8)"><g transform="" style="fill: rgb(7, 86, 133);"><path d="M100,34.375L65.625,0H0v100h100V34.375z" /></g></g>
<g transform="translate(1200,1200) scale(0.8, 0.8)"><g transform="" style="fill: rgb(7, 86, 133);"><path d="M40.625,0H100v100H40.625L0,50L40.625,0z" /></g></g>
<g transform="translate(1280,1200) scale(0.8, 0.8)"><g transform="" style="fill: rgb(7, 86, 133);"><rect width="100" height="100" /></g></g>
<g transform="translate(1360,1200) scale(0.8, 0.8)"><g transform="" style="fill: rgb(7, 86, 133);"><path d="M100,34.375L65.625,0H0v100h100V34.375z" /></g></g>
<g transform="translate(1520,1200) scale(0.8, 0.8)"><g transform="" style="fill: rgb(7, 86, 133);"><path d="M0,34.375V100h100V34.375V0H34.375" /></g></g>
<g transform="translate(1600,1200) scale(0.8, 0.8)"><g transform="" style="fill: rgb(7, 86, 133);"><rect width="100" height="100" /></g></g>
<g transform="translate(1680,1200) scale(0.8, 0.8)"><g transform="" style="fill: rgb(7, 86, 133);"><rect width="100" height="100" /></g></g>
<g transform="translate(1840,1200) scale(0.8, 0.8)"><g transform="" style="fill: rgb(7, 86, 133);"><polygon points="99.999,49.999 99.998,49.999 49.999,0 0,49.999 -0.001,49.999 -0.001,50 0,50 49.999,99.999 99.998,50 99.999,50   99.998,50 " /></g></g>
<g transform="translate(0,1280) scale(0.8, 0.8)"><g transform="" style="fill: rgb(7, 86, 133);"><path d="M40.625,0H100v100H40.625L0,50L40.625,0z" /></g></g>
<g transform="translate(80,1280) scale(0.8, 0.8)"><g transform="" style="fill: rgb(7, 86, 133);"><rect width="100" height="100" /></g></g>
<g transform="translate(160,1280) scale(0.8, 0.8)"><g transform="" style="fill: rgb(7, 86, 133);"><path d="M100,65.625V0H0v100h65.625" /></g></g>
<g transform="translate(320,1280) scale(0.8, 0.8)"><g transform="" style="fill: rgb(7, 86, 133);"><path d="M40.625,0H100v100H40.625L0,50L40.625,0z" /></g></g>
<g transform="translate(400,1280) scale(0.8, 0.8)"><g transform="" style="fill: rgb(7, 86, 133);"><rect width="100" height="100" /></g></g>
<g transform="translate(480,1280) scale(0.8, 0.8)"><g transform="" style="fill: rgb(7, 86, 133);"><rect width="100" height="100" /></g></g>
<g transform="translate(560,1280) scale(0.8, 0.8)"><g transform="" style="fill: rgb(7, 86, 133);"><rect width="100" height="100" /></g></g>
<g transform="translate(640,1280) scale(0.8, 0.8)"><g transform="" style="fill: rgb(7, 86, 133);"><path d="M100,34.375L65.625,0H0v100h100V34.375z" /></g></g>
<g transform="translate(880,1280) scale(0.8, 0.8)"><g transform="" style="fill: rgb(7, 86, 133);"><path d="M100,40.625V100H0V40.625L50,0L100,40.625z" /></g></g>
<g transform="translate(1040,1280) scale(0.8, 0.8)"><g transform="" style="fill: rgb(7, 86, 133);"><rect width="100" height="100" /></g></g>
<g transform="translate(1280,1280) scale(0.8, 0.8)"><g transform="" style="fill: rgb(7, 86, 133);"><rect width="100" height="100" /></g></g>
<g transform="translate(1360,1280) scale(0.8, 0.8)"><g transform="" style="fill: rgb(7, 86, 133);"><rect width="100" height="100" /></g></g>
<g transform="translate(1440,1280) scale(0.8, 0.8)"><g transform="" style="fill: rgb(7, 86, 133);"><rect width="100" height="100" /></g></g>
<g transform="translate(1520,1280) scale(0.8, 0.8)"><g transform="" style="fill: rgb(7, 86, 133);"><rect width="100" height="100" /></g></g>
<g transform="translate(1600,1280) scale(0.8, 0.8)"><g transform="" style="fill: rgb(7, 86, 133);"><rect width="100" height="100" /></g></g>
<g transform="translate(1680,1280) scale(0.8, 0.8)"><g transform="" style="fill: rgb(7, 86, 133);"><path d="M100,65.625V0H0v100h65.625" /></g></g>
<g transform="translate(640,1360) scale(0.8, 0.8)"><g transform="" style="fill: rgb(7, 86, 133);"><path d="M34.375,100H100V0H0v65.625" /></g></g>
<g transform="translate(720,1360) scale(0.8, 0.8)"><g transform="" style="fill: rgb(7, 86, 133);"><path d="M100,34.375L65.625,0H0v100h100V34.375z" /></g></g>
<g transform="translate(880,1360) scale(0.8, 0.8)"><g transform="" style="fill: rgb(7, 86, 133);"><path d="M100,59.375V0H0v59.375L50,100L100,59.375z" /></g></g>
<g transform="translate(1040,1360) scale(0.8, 0.8)"><g transform="" style="fill: rgb(7, 86, 133);"><rect width="100" height="100" /></g></g>
<g transform="translate(1280,1360) scale(0.8, 0.8)"><g transform="" style="fill: rgb(7, 86, 133);"><rect width="100" height="100" /></g></g>
<g transform="translate(1600,1360) scale(0.8, 0.8)"><g transform="" style="fill: rgb(7, 86, 133);"><rect width="100" height="100" /></g></g>
<g transform="translate(1760,1360) scale(0.8, 0.8)"><g transform="" style="fill: rgb(7, 86, 133);"><path d="M100,40.625V100H0V40.625L50,0L100,40.625z" /></g></g>
<g transform="translate(720,1440) scale(0.8, 0.8)"><g transform="" style="fill: rgb(7, 86, 133);"><rect width="100" height="100" /></g></g>
<g transform="translate(800,1440) scale(0.8, 0.8)"><g transform="" style="fill: rgb(7, 86, 133);"><path d="M59.375,0H0v100h59.375L100,50L59.375,0z" /></g></g>
<g transform="translate(1040,1440) scale(0.8, 0.8)"><g transform="" style="fill: rgb(7, 86, 133);"><rect width="100" height="100" /></g></g>
<g transform="translate(1200,1440) scale(0.8, 0.8)"><g transform="" style="fill: rgb(7, 86, 133);"><path d="M40.625,0H100v100H40.625L0,50L40.625,0z" /></g></g>
<g transform="translate(1280,1440) scale(0.8, 0.8)"><g transform="" style="fill: rgb(7, 86, 133);"><rect width="100" height="100" /></g></g>
<g transform="translate(1440,1440) scale(0.8, 0.8)"><g transform="" style="fill: rgb(7, 86, 133);"><polygon points="99.999,49.999 99.998,49.999 49.999,0 0,49.999 -0.001,49.999 -0.001,50 0,50 49.999,99.999 99.998,50 99.999,50   99.998,50 " /></g></g>
<g transform="translate(1600,1440) scale(0.8, 0.8)"><g transform="" style="fill: rgb(7, 86, 133);"><rect width="100" height="100" /></g></g>
<g transform="translate(1760,1440) scale(0.8, 0.8)"><g transform="" style="fill: rgb(7, 86, 133);"><path d="M100,59.375V0H0v59.375L50,100L100,59.375z" /></g></g>
<g transform="translate(1920,1440) scale(0.8, 0.8)"><g transform="" style="fill: rgb(7, 86, 133);"><polygon points="99.999,49.999 99.998,49.999 49.999,0 0,49.999 -0.001,49.999 -0.001,50 0,50 49.999,99.999 99.998,50 99.999,50   99.998,50 " /></g></g>
<g transform="translate(720,1520) scale(0.8, 0.8)"><g transform="" style="fill: rgb(7, 86, 133);"><rect width="100" height="100" /></g></g>
<g transform="translate(880,1520) scale(0.8, 0.8)"><g transform="" style="fill: rgb(7, 86, 133);"><polygon points="99.999,49.999 99.998,49.999 49.999,0 0,49.999 -0.001,49.999 -0.001,50 0,50 49.999,99.999 99.998,50 99.999,50   99.998,50 " /></g></g>
<g transform="translate(1040,1520) scale(0.8, 0.8)"><g transform="" style="fill: rgb(7, 86, 133);"><path d="M34.375,100H100V0H0v65.625" /></g></g>
<g transform="translate(1120,1520) scale(0.8, 0.8)"><g transform="" style="fill: rgb(7, 86, 133);"><path d="M100,34.375L65.625,0H0v100h100V34.375z" /></g></g>
<g transform="translate(1280,1520) scale(0.8, 0.8)"><g transform="" style="fill: rgb(7, 86, 133);"><rect width="100" height="100" /></g></g>
<g transform="translate(1600,1520) scale(0.8, 0.8)"><g transform="" style="fill: rgb(7, 86, 133);"><rect width="100" height="100" /></g></g>
<g transform="translate(1840,1520) scale(0.8, 0.8)"><g transform="" style="fill: rgb(7, 86, 133);"><polygon points="99.999,49.999 99.998,49.999 49.999,0 0,49.999 -0.001,49.999 -0.001,50 0,50 49.999,99.999 99.998,50 99.999,50   99.998,50 " /></g></g>
<g transform="translate(720,1600) scale(0.8, 0.8)"><g transform="" style="fill: rgb(7, 86, 133);"><rect width="100" height="100" /></g></g>
<g transform="translate(800,1600) scale(0.8, 0.8)"><g transform="" style="fill: rgb(7, 86, 133);"><path d="M100,34.375L65.625,0H0v100h100V34.375z" /></g></g>
<g transform="translate(960,1600) scale(0.8, 0.8)"><g transform="" style="fill: rgb(7, 86, 133);"><path d="M100,40.625V100H0V40.625L50,0L100,40.625z" /></g></g>
<g transform="translate(1120,1600) scale(0.8, 0.8)"><g transform="" style="fill: rgb(7, 86, 133);"><path d="M34.375,100H100V0H0v65.625" /></g></g>
<g transform="translate(1200,1600) scale(0.8, 0.8)"><g transform="" style="fill: rgb(7, 86, 133);"><rect width="100" height="100" /></g></g>
<g transform="translate(1280,1600) scale(0.8, 0.8)"><g transform="" style="fill: rgb(7, 86, 133);"><rect width="100" height="100" /></g></g>
<g transform="translate(1360,1600) scale(0.8, 0.8)"><g transform="" style="fill: rgb(7, 86, 133);"><rect width="100" height="100" /></g></g>
<g transform="translate(1440,1600) scale(0.8, 0.8)"><g transform="" style="fill: rgb(7, 86, 133);"><rect width="100" height="100" /></g></g>
<g transform="translate(1520,1600) scale(0.8, 0.8)"><g transform="" style="fill: rgb(7, 86, 133);"><rect width="100" height="100" /></g></g>
<g transform="translate(1600,1600) scale(0.8, 0.8)"><g transform="" style="fill: rgb(7, 86, 133);"><rect width="100" height="100" /></g></g>
<g transform="translate(1680,1600) scale(0.8, 0.8)"><g transform="" style="fill: rgb(7, 86, 133);"><path d="M59.375,0H0v100h59.375L100,50L59.375,0z" /></g></g>
<g transform="translate(720,1680) scale(0.8, 0.8)"><g transform="" style="fill: rgb(7, 86, 133);"><path d="M34.375,100H100V0H0v65.625" /></g></g>
<g transform="translate(800,1680) scale(0.8, 0.8)"><g transform="" style="fill: rgb(7, 86, 133);"><rect width="100" height="100" /></g></g>
<g transform="translate(880,1680) scale(0.8, 0.8)"><g transform="" style="fill: rgb(7, 86, 133);"><rect width="100" height="100" /></g></g>
<g transform="translate(960,1680) scale(0.8, 0.8)"><g transform="" style="fill: rgb(7, 86, 133);"><rect width="100" height="100" /></g></g>
<g transform="translate(1040,1680) scale(0.8, 0.8)"><g transform="" style="fill: rgb(7, 86, 133);"><path d="M59.375,0H0v100h59.375L100,50L59.375,0z" /></g></g>
<g transform="translate(1200,1680) scale(0.8, 0.8)"><g transform="" style="fill: rgb(7, 86, 133);"><rect width="100" height="100" /></g></g>
<g transform="translate(1360,1680) scale(0.8, 0.8)"><g transform="" style="fill: rgb(7, 86, 133);"><rect width="100" height="100" /></g></g>
<g transform="translate(1600,1680) scale(0.8, 0.8)"><g transform="" style="fill: rgb(7, 86, 133);"><rect width="100" height="100" /></g></g>
<g transform="translate(640,1760) scale(0.8, 0.8)"><g transform="" style="fill: rgb(7, 86, 133);"><path d="M100,40.625V100H0V40.625L50,0L100,40.625z" /></g></g>
<g transform="translate(880,1760) scale(0.8, 0.8)"><g transform="" style="fill: rgb(7, 86, 133);"><rect width="100" height="100" /></g></g>
<g transform="translate(1200,1760) scale(0.8, 0.8)"><g transform="" style="fill: rgb(7, 86, 133);"><path d="M100,59.375V0H0v59.375L50,100L100,59.375z" /></g></g>
<g transform="translate(1360,1760) scale(0.8, 0.8)"><g transform="" style="fill: rgb(7, 86, 133);"><rect width="100" height="100" /></g></g>
<g transform="translate(1600,1760) scale(0.8, 0.8)"><g transform="" style="fill: rgb(7, 86, 133);"><path d="M34.375,100H100V0H0v65.625" /></g></g>
<g transform="translate(1680,1760) scale(0.8, 0.8)"><g transform="" style="fill: rgb(7, 86, 133);"><rect width="100" height="100" /></g></g>
<g transform="translate(1760,1760) scale(0.8, 0.8)"><g transform="" style="fill: rgb(7, 86, 133);"><rect width="100" height="100" /></g></g>
<g transform="translate(1840,1760) scale(0.8, 0.8)"><g transform="" style="fill: rgb(7, 86, 133);"><rect width="100" height="100" /></g></g>
<g transform="translate(1920,1760) scale(0.8, 0.8)"><g transform="" style="fill: rgb(7, 86, 133);"><path d="M59.375,0H0v100h59.375L100,50L59.375,0z" /></g></g>
<g transform="translate(640,1840) scale(0.8, 0.8)"><g transform="" style="fill: rgb(7, 86, 133);"><path d="M100,59.375V0H0v59.375L50,100L100,59.375z" /></g></g>
<g transform="translate(880,1840) scale(0.8, 0.8)"><g transform="" style="fill: rgb(7, 86, 133);"><rect width="100" height="100" /></g></g>
<g transform="translate(960,1840) scale(0.8, 0.8)"><g transform="" style="fill: rgb(7, 86, 133);"><rect width="100" height="100" /></g></g>
<g transform="translate(1040,1840) scale(0.8, 0.8)"><g transform="" style="fill: rgb(7, 86, 133);"><rect width="100" height="100" /></g></g>
<g transform="translate(1120,1840) scale(0.8, 0.8)"><g transform="" style="fill: rgb(7, 86, 133);"><path d="M59.375,0H0v100h59.375L100,50L59.375,0z" /></g></g>
<g transform="translate(1280,1840) scale(0.8, 0.8)"><g transform="" style="fill: rgb(7, 86, 133);"><path d="M0,34.375V100h100V34.375V0H34.375" /></g></g>
<g transform="translate(1360,1840) scale(0.8, 0.8)"><g transform="" style="fill: rgb(7, 86, 133);"><rect width="100" height="100" /></g></g>
<g transform="translate(1520,1840) scale(0.8, 0.8)"><g transform="" style="fill: rgb(7, 86, 133);"><path d="M100,40.625V100H0V40.625L50,0L100,40.625z" /></g></g>
<g transform="translate(1680,1840) scale(0.8, 0.8)"><g transform="" style="fill: rgb(7, 86, 133);"><path d="M100,59.375V0H0v59.375L50,100L100,59.375z" /></g></g>
<g transform="translate(800,1920) scale(0.8, 0.8)"><g transform="" style="fill: rgb(7, 86, 133);"><path d="M40.625,0H100v100H40.625L0,50L40.625,0z" /></g></g>
<g transform="translate(880,1920) scale(0.8, 0.8)"><g transform="" style="fill: rgb(7, 86, 133);"><path d="M100,65.625V0H0v100h65.625" /></g></g>
<g transform="translate(1040,1920) scale(0.8, 0.8)"><g transform="" style="fill: rgb(7, 86, 133);"><path d="M100,59.375V0H0v59.375L50,100L100,59.375z" /></g></g>
<g transform="translate(1280,1920) scale(0.8, 0.8)"><g transform="" style="fill: rgb(7, 86, 133);"><path d="M34.375,100H100V0H0v65.625" /></g></g>
<g transform="translate(1360,1920) scale(0.8, 0.8)"><g transform="" style="fill: rgb(7, 86, 133);"><path d="M100,65.625V0H0v100h65.625" /></g></g>
<g transform="translate(1520,1920) scale(0.8, 0.8)"><g transform="" style="fill: rgb(7, 86, 133);"><path d="M100,59.375V0H0v59.375L50,100L100,59.375z" /></g></g>
<g transform="translate(1760,1920) scale(0.8, 0.8)"><g transform="" style="fill: rgb(7, 86, 133);"><polygon points="99.999,49.999 99.998,49.999 49.999,0 0,49.999 -0.001,49.999 -0.001,50 0,50 49.999,99.999 99.998,50 99.999,50   99.998,50 " /></g></g>
<g transform="translate(1920,1920) scale(0.8, 0.8)"><g transform="" style="fill: rgb(7, 86, 133);"><polygon points="99.999,49.999 99.998,49.999 49.999,0 0,49.999 -0.001,49.999 -0.001,50 0,50 49.999,99.999 99.998,50 99.999,50   99.998,50 " /></g></g>
</g>
</g></svg>
