<svg version="1.1" baseProfile="full" shape-rendering="crispEdges" width="2120" height="2120" xmlns="http://www.w3.org/2000/svg"><rect x="0" y="0" width="2120" height="2120" fill="rgb(255, 255, 255)" />
<g transform="translate(60,60)" id="MainGraphicLayer">
<g id="EyeFrames">
<g transform="translate(0,0) scale(6.72, 6.72)"><g transform="" style="fill: rgb(0, 0, 0);"><rect x="15" y="15" style="fill:none;" width="70" height="70" />
<path d="M85,0H15H0v15v70v15h15h70h15V85V15V0H85z M85,85H15V15h70V85z" /></g></g>
<g transform="translate(1344,0) scale(6.72, 6.72)"><g transform="" style="fill: rgb(0, 0, 0);"><rect x="15" y="15" style="fill:none;" width="70" height="70" />
<path d="M85,0H15H0v15v70v15h15h70h15V85V15V0H85z M85,85H15V15h70V85z" /></g></g>
<g transform="translate(0,1344) scale(6.72, 6.72)"><g transform="" style="fill: rgb(0, 0, 0);"><rect x="15" y="15" style="fill:none;" width="70" height="70" />
<path d="M85,0H15H0v15v70v15h15h70h15V85V15V0H85z M85,85H15V15h70V85z" /></g></g>
</g>
<g id="EyeBall">
<g transform="translate(192,192) scale(2.88, 2.88)"><g transform="" style="fill: rgb(0, 0, 0);"><rect width="100" height="100" /></g></g>
<g transform="translate(1536,192) scale(2.88, 2.88)"><g transform="" style="fill: rgb(0, 0, 0);"><rect width="100" height="100" /></g></g>
<g transform="translate(192,1536) scale(2.88, 2.88)"><g transform="" style="fill: rgb(0, 0, 0);"><rect width="100" height="100" /></g></g>
</g>
<g id="PixelLayer">
<rect x="768" y="0" width="96" height="96" fill="rgb(0, 0, 0)" />
<rect x="864" y="0" width="96" height="96" fill="rgb(0, 0, 0)" />
<rect x="960" y="0" width="96" height="96" fill="rgb(0, 0, 0)" />
<rect x="1056" y="0" width="96" height="96" fill="rgb(0, 0, 0)" />
<rect x="768" y="96" width="96" height="96" fill="rgb(0, 0, 0)" />
<rect x="864" y="96" width="96" height="96" fill="rgb(0, 0, 0)" />
<rect x="960" y="96" width="96" height="96" fill="rgb(0, 0, 0)" />
<rect x="768" y="192" width="96" height="96" fill="rgb(0, 0, 0)" />
<rect x="960" y="192" width="96" height="96" fill="rgb(0, 0, 0)" />
<rect x="1152" y="192" width="96" height="96" fill="rgb(0, 0, 0)" />
<rect x="768" y="288" width="96" height="96" fill="rgb(0, 0, 0)" />
<rect x="1056" y="288" width="96" height="96" fill="rgb(0, 0, 0)" />
<rect x="768" y="384" width="96" height="96" fill="rgb(0, 0, 0)" />
<rect x="864" y="384" width="96" height="96" fill="rgb(0, 0, 0)" />
<rect x="960" y="384" width="96" height="96" fill="rgb(0, 0, 0)" />
<rect x="1056" y="384" width="96" height="96" fill="rgb(0, 0, 0)" />
<rect x="864" y="480" width="96" height="96" fill="rgb(0, 0, 0)" />
<rect x="768" y="576" width="96" height="96" fill="rgb(0, 0, 0)" />
<rect x="960" y="576" width="96" height="96" fill="rgb(0, 0, 0)" />
<rect x="1152" y="576" width="96" height="96" fill="rgb(0, 0, 0)" />
<rect x="768" y="672" width="96" height="96" fill="rgb(0, 0, 0)" />
<rect x="96" y="768" width="96" height="96" fill="rgb(0, 0, 0)" />
<rect x="192" y="768" width="96" height="96" fill="rgb(0, 0, 0)" />
<rect x="384" y="768" width="96" height="96" fill="rgb(0, 0, 0)" />
<rect x="576" y="768" width="96" height="96" fill="rgb(0, 0, 0)" />
<rect x="672" y="768" width="96" height="96" fill="rgb(0, 0, 0)" />
<rect x="960" y="768" width="96" height="96" fill="rgb(0, 0, 0)" />
<rect x="1056" y="768" width="96" height="96" fill="rgb(0, 0, 0)" />
<rect x="1152" y="768" width="96" height="96" fill="rgb(0, 0, 0)" />
<rect x="1344" y="768" width="96" height="96" fill="rgb(0, 0, 0)" />
<rect x="1536" y="768" width="96" height="96" fill="rgb(0, 0, 0)" />
<rect x="1632" y="768" width="96" height="96" fill="rgb(0, 0, 0)" />
<rect x="1728" y="768" width="96" height="96" fill="rgb(0, 0, 0)" />
<rect x="1824" y="768" width="96" height="96" fill="rgb(0, 0, 0)" />
<rect x="1920" y="768" width="96" height="96" fill="rgb(0, 0, 0)" />
<rect x="0" y="864" width="96" height="96" fill="rgb(0, 0, 0)" />
<rect x="192" y="864" width="96" height="96" fill="rgb(0, 0, 0)" />
<rect x="384" y="864" width="96" height="96" fill="rgb(0, 0, 0)" />
<rect x="672" y="864" width="96" height="96" fill="rgb(0, 0, 0)" />
<rect x="960" y="864" width="96" height="96" fill="rgb(0, 0, 0)" />
<rect x="1152" y="864" width="96" height="96" fill="rgb(0, 0, 0)" />
<rect x="1344" y="864" width="96" height="96" fill="rgb(0, 0, 0)" />
<rect x="1824" y="864" width="96" height="96" fill="rgb(0, 0, 0)" />
<rect x="1920" y="864" width="96" height="96" fill="rgb(0, 0, 0)" />
<rect x="96" y="960" width="96" height="96" fill="rgb(0, 0, 0)" />
<rect x="288" y="960" width="96" height="96" fill="rgb(0, 0, 0)" />
<rect x="480" y="960" width="96" height="96" fill="rgb(0, 0, 0)" />
<rect x="576" y="960" width="96" height="96" fill="rgb(0, 0, 0)" />
<rect x="1056" y="960" width="96" height="96" fill="rgb(0, 0, 0)" />
<rect x="1536" y="960" width="96" height="96" fill="rgb(0, 0, 0)" />
<rect x="1632" y="960" width="96" height="96" fill="rgb(0, 0, 0)" />
<rect x="1728" y="960" width="96" height="96" fill="rgb(0, 0, 0)" />
<rect x="1824" y="960" width="96" height="96" fill="rgb(0, 0, 0)" />
<rect x="1920" y="960" width="96" height="96" fill="rgb(0, 0, 0)" />
<rect x="0" y="1056" width="96" height="96" fill="rgb(0, 0, 0)" />
<rect x="192" y="1056" width="96" height="96" fill="rgb(0, 0, 0)" />
<rect x="384" y="1056" width="96" height="96" fill="rgb(0, 0, 0)" />
<rect x="672" y="1056" width="96" height="96" fill="rgb(0, 0, 0)" />
<rect x="768" y="1056" width="96" height="96" fill="rgb(0, 0, 0)" />
<rect x="864" y="1056" width="96" height="96" fill="rgb(0, 0, 0)" />
<rect x="1152" y="1056" width="96" height="96" fill="rgb(0, 0, 0)" />
<rect x="1344" y="1056" width="96" height="96" fill="rgb(0, 0, 0)" />
<rect x="1824" y="1056" width="96" height="96" fill="rgb(0, 0, 0)" />
<rect x="0" y="1152" width="96" height="96" fill="rgb(0, 0, 0)" />
<rect x="96" y="1152" width="96" height="96" fill="rgb(0, 0, 0)" />
<rect x="576" y="1152" width="96" height="96" fill="rgb(0, 0, 0)" />
<rect x="672" y="1152" width="96" height="96" fill="rgb(0, 0, 0)" />
<rect x="960" y="1152" width="96" height="96" fill="rgb(0, 0, 0)" />
<rect x="1344" y="1152" width="96" height="96" fill="rgb(0, 0, 0)" />
<rect x="1536" y="1152" width="96" height="96" fill="rgb(0, 0, 0)" />
<rect x="768" y="1248" width="96" height="96" fill="rgb(0, 0, 0)" />
<rect x="864" y="1248" width="96" height="96" fill="rgb(0, 0, 0)" />
<rect x="1056" y="1248" width="96" height="96" fill="rgb(0, 0, 0)" />
<rect x="1152" y="1248" width="96" height="96" fill="rgb(0, 0, 0)" />
<rect x="1248" y="1248" width="96" height="96" fill="rgb(0, 0, 0)" />
<rect x="1440" y="1248" width="96" height="96" fill="rgb(0, 0, 0)" />
<rect x="1728" y="1248" width="96" height="96" fill="rgb(0, 0, 0)" />
<rect x="1824" y="1248" width="96" height="96" fill="rgb(0, 0, 0)" />
<rect x="1920" y="1248" width="96" height="96" fill="rgb(0, 0, 0)" />
<rect x="768" y="1344" width="96" height="96" fill="rgb(0, 0, 0)" />
<rect x="864" y="1344" width="96" height="96" fill="rgb(0, 0, 0)" />
<rect x="960" y="1344" width="96" height="96" fill="rgb(0, 0, 0)" />
<rect x="1248" y="1344" width="96" height="96" fill="rgb(0, 0, 0)" />
<rect x="1344" y="1344" width="96" height="96" fill="rgb(0, 0, 0)" />
<rect x="1440" y="1344" width="96" height="96" fill="rgb(0, 0, 0)" />
<rect x="1728" y="1344" width="96" height="96" fill="rgb(0, 0, 0)" />
<rect x="1824" y="1344" width="96" height="96" fill="rgb(0, 0, 0)" />
<rect x="1920" y="1344" width="96" height="96" fill="rgb(0, 0, 0)" />
<rect x="1248" y="1440" width="96" height="96" fill="rgb(0, 0, 0)" />
<rect x="1440" y="1440" width="96" height="96" fill="rgb(0, 0, 0)" />
<rect x="1536" y="1440" width="96" height="96" fill="rgb(0, 0, 0)" />
<rect x="768" y="1536" width="96" height="96" fill="rgb(0, 0, 0)" />
<rect x="864" y="1536" width="96" height="96" fill="rgb(0, 0, 0)" />
<rect x="960" y="1536" width="96" height="96" fill="rgb(0, 0, 0)" />
<rect x="1152" y="1536" width="96" height="96" fill="rgb(0, 0, 0)" />
<rect x="1248" y="1536" width="96" height="96" fill="rgb(0, 0, 0)" />
<rect x="1344" y="1536" width="96" height="96" fill="rgb(0, 0, 0)" />
<rect x="1440" y="1536" width="96" height="96" fill="rgb(0, 0, 0)" />
<rect x="1824" y="1536" width="96" height="96" fill="rgb(0, 0, 0)" />
<rect x="1920" y="1536" width="96" height="96" fill="rgb(0, 0, 0)" />
<rect x="1344" y="1632" width="96" height="96" fill="rgb(0, 0, 0)" />
<rect x="1440" y="1632" width="96" height="96" fill="rgb(0, 0, 0)" />
<rect x="1728" y="1632" width="96" height="96" fill="rgb(0, 0, 0)" />
<rect x="1824" y="1632" width="96" height="96" fill="rgb(0, 0, 0)" />
<rect x="768" y="1728" width="96" height="96" fill="rgb(0, 0, 0)" />
<rect x="864" y="1728" width="96" height="96" fill="rgb(0, 0, 0)" />
<rect x="1152" y="1728" width="96" height="96" fill="rgb(0, 0, 0)" />
<rect x="1536" y="1728" width="96" height="96" fill="rgb(0, 0, 0)" />
<rect x="1728" y="1728" width="96" height="96" fill="rgb(0, 0, 0)" />
<rect x="1920" y="1728" width="96" height="96" fill="rgb(0, 0, 0)" />
<rect x="768" y="1824" width="96" height="96" fill="rgb(0, 0, 0)" />
<rect x="864" y="1824" width="96" height="96" fill="rgb(0, 0, 0)" />
<rect x="960" y="1824" width="96" height="96" fill="rgb(0, 0, 0)" />
<rect x="1344" y="1824" width="96" height="96" fill="rgb(0, 0, 0)" />
<rect x="1536" y="1824" width="96" height="96" fill="rgb(0, 0, 0)" />
<rect x="1824" y="1824" width="96" height="96" fill="rgb(0, 0, 0)" />
<rect x="1152" y="1920" width="96" height="96" fill="rgb(0, 0, 0)" />
<rect x="1344" y="1920" width="96" height="96" fill="rgb(0, 0, 0)" />
<rect x="1440" y="1920" width="96" height="96" fill="rgb(0, 0, 0)" />
<rect x="1824" y="1920" width="96" height="96" fill="rgb(0, 0, 0)" />
<rect x="1920" y="1920" width="96" height="96" fill="rgb(0, 0, 0)" />
</g>
</g></svg>
